<?xml version="1.0" standalone="no"?><!-- Generator: Gravit.io --><svg xmlns="http://www.w3.org/2000/svg" xmlns:xlink="http://www.w3.org/1999/xlink" style="isolation:isolate" viewBox="0 0 128 128" width="128" height="128"><defs><clipPath id="_clipPath_lnFNsTEQHsIG7TNsTrixsum1KS1cZoTE"><rect width="128" height="128"/></clipPath></defs><g clip-path="url(#_clipPath_lnFNsTEQHsIG7TNsTrixsum1KS1cZoTE)"><rect x="0" y="0" width="128" height="128" transform="matrix(1,0,0,1,0,0)" fill="rgb(196,30,32)"/><ellipse vector-effect="non-scaling-stroke" cx="64" cy="88" rx="48" ry="24" fill="rgb(65,33,10)" stroke-width="4" stroke="rgb(65,33,10)" stroke-linejoin="miter" stroke-linecap="square" stroke-miterlimit="3"/><rect x="16" y="40" width="96" height="48" transform="matrix(1,0,0,1,0,0)" fill="rgb(65,33,10)" vector-effect="non-scaling-stroke" stroke-width="4" stroke="rgb(65,33,10)" stroke-linejoin="miter" stroke-linecap="square" stroke-miterlimit="2"/><ellipse vector-effect="non-scaling-stroke" cx="64" cy="40" rx="48" ry="24" fill="rgb(255,255,255)" stroke-width="4" stroke="rgb(65,33,10)" stroke-linejoin="miter" stroke-linecap="square" stroke-miterlimit="3"/><path d="M 29.511 40.927 L 34.489 40.927 C 37.531 40.927 40 43.397 40 46.438 L 40 91.417 C 40 94.458 37.531 96.927 34.489 96.927 L 29.511 96.927 C 26.469 96.927 24 94.458 24 91.417 L 24 46.438 C 24 43.397 26.469 40.927 29.511 40.927 Z" style="stroke:none;fill:#FFFFFF;stroke-miterlimit:10;opacity:0.15;"/><ellipse vector-effect="non-scaling-stroke" cx="64" cy="40" rx="32.000000000000014" ry="8.000000000000002" fill="rgb(235,235,235)"/><polygon points="80,35.714,63.594,46.431,62.516,26.865" fill="rgb(170,186,52)"/><polygon points="95.465,47.206,76.537,42.134,90.393,28.278" fill="rgb(170,186,52)"/><rect x="30.042" y="33.464" width="24.399" height="8" transform="matrix(0.976,-0.218,0.218,0.976,-7.139,10.088)" fill="rgb(254,166,18)"/><rect x="42.819" y="36.927" width="24.399" height="8" transform="matrix(-0.469,0.883,-0.883,-0.469,116.974,11.54)" fill="rgb(254,166,18)"/><rect x="59.801" y="36.927" width="24.399" height="8" transform="matrix(-0.799,-0.602,0.602,-0.799,104.881,116.94)" fill="rgb(254,166,18)"/><rect x="64.337" y="32.648" width="24.399" height="8" transform="matrix(-0.797,0.604,-0.604,-0.797,159.667,19.611)" fill="rgb(254,166,18)"/><polygon points="74.058,37.721,63.345,54.13,54.491,36.648" fill="rgb(170,186,52)"/><polygon points="54.441,41.815,35.587,47.157,40.387,28.158" fill="rgb(170,186,52)"/></g></svg>